<svg width="110" height="110" viewBox="0 0 110 110" fill="none" xmlns="http://www.w3.org/2000/svg">
<path d="M98.7578 22.5131C101.51 22.5216 104.147 23.6231 106.088 25.5751C108.03 27.5272 109.116 30.1701 109.109 32.9227L108.935 98.9836C108.927 101.736 107.827 104.373 105.875 106.313C103.924 108.254 101.281 109.34 98.5289 109.332L32.468 109.137C29.7467 109.081 27.1557 107.959 25.253 106.013C23.3503 104.066 22.2881 101.45 22.2953 98.7277C22.3025 96.0059 23.3784 93.3961 25.2913 91.4605C27.2043 89.5248 29.8012 88.4182 32.5227 88.379L72.8949 87.8669L3.3479 17.93C1.40632 15.9775 0.319634 13.334 0.326891 10.5809C0.334154 7.82784 1.43477 5.19076 3.38662 3.24979C5.33847 1.30882 7.98166 0.222969 10.7347 0.2311C13.4878 0.239232 16.1252 1.34068 18.0668 3.29314L87.6138 73.2301L88.3516 32.8614C88.3592 30.1088 89.4598 27.4724 91.4113 25.5318C93.3628 23.5912 96.0053 22.5054 98.7578 22.5131Z" fill="black"/>
</svg>
