<svg width="26" height="27" viewBox="0 0 26 27" fill="none" xmlns="http://www.w3.org/2000/svg">
<path d="M0.558594 13.5H13.107V25.9835C6.16884 25.9835 0.558594 20.3948 0.558594 13.5Z" fill="#1D1D1B" stroke="#1D1D1B" stroke-width="0.5" stroke-miterlimit="10"/>
<path d="M12.8911 1V13.5H0.375977C0.375977 6.58862 5.98622 1 12.9077 1H12.8911Z" fill="#1D1D1B" stroke="#1D1D1B" stroke-width="0.5" stroke-miterlimit="10"/>
<path d="M25.4561 13.5001H12.9077V1.0166C19.8458 1.0166 25.4561 6.60523 25.4561 13.5001Z" fill="#1D1D1B" stroke="#1D1D1B" stroke-width="0.5" stroke-miterlimit="10"/>
<path d="M12.9077 26C19.838 26 25.4561 20.4036 25.4561 13.5C25.4561 6.59644 19.838 1 12.9077 1C5.97747 1 0.359375 6.59644 0.359375 13.5C0.359375 20.4036 5.97747 26 12.9077 26Z" stroke="#1D1D1B" stroke-width="0.5" stroke-miterlimit="10"/>
<path d="M12.9077 1V26" stroke="#1D1D1B" stroke-width="0.5" stroke-miterlimit="10"/>
<path d="M25.4561 13.5H0.375977" stroke="#1D1D1B" stroke-width="0.5" stroke-miterlimit="10"/>
</svg>
